<svg width="43" height="43" viewBox="0 0 43 43" fill="none" xmlns="http://www.w3.org/2000/svg">
<g opacity="0.7">
<path d="M21.5 10.75V32.25M16.125 27.2011L17.6999 28.3818C19.7979 29.9567 23.2003 29.9567 25.3001 28.3818C27.4 26.8069 27.4 24.2556 25.3001 22.6807C24.252 21.8924 22.876 21.5 21.5 21.5C20.201 21.5 18.9021 21.1058 17.9113 20.3193C15.9297 18.7444 15.9297 16.1931 17.9113 14.6182C19.8929 13.0433 23.1071 13.0433 25.0887 14.6182L25.8322 15.2095M37.625 21.5C37.625 23.6176 37.2079 25.7144 36.3976 27.6708C35.5872 29.6271 34.3994 31.4048 32.9021 32.9021C31.4048 34.3994 29.6271 35.5872 27.6708 36.3976C25.7144 37.2079 23.6176 37.625 21.5 37.625C19.3824 37.625 17.2856 37.2079 15.3292 36.3976C13.3729 35.5872 11.5952 34.3994 10.0979 32.9021C8.60056 31.4048 7.4128 29.6271 6.60244 27.6708C5.79209 25.7144 5.375 23.6176 5.375 21.5C5.375 17.2234 7.07388 13.1219 10.0979 10.0979C13.1219 7.07388 17.2234 5.375 21.5 5.375C25.7766 5.375 29.8781 7.07388 32.9021 10.0979C35.9261 13.1219 37.625 17.2234 37.625 21.5Z" stroke="black" stroke-width="1.5" stroke-linecap="round" stroke-linejoin="round"/>
</g>
</svg>
