<svg width="41" height="41" viewBox="0 0 41 41" fill="none" xmlns="http://www.w3.org/2000/svg">
<g opacity="0.7">
<path d="M20.5 12.8125H23.0625M20.5 17.9375H23.0625M10.25 23.0625H23.0625M10.25 28.1875H23.0625M28.1875 12.8125H33.9531C35.014 12.8125 35.875 13.6735 35.875 14.7344V30.75C35.875 31.7694 35.47 32.7471 34.7492 33.4679C34.0283 34.1888 33.0507 34.5938 32.0313 34.5938M28.1875 12.8125V30.75C28.1875 31.7694 28.5925 32.7471 29.3133 33.4679C30.0342 34.1888 31.0118 34.5938 32.0313 34.5938M28.1875 12.8125V8.32813C28.1875 7.26725 27.3265 6.40625 26.2656 6.40625H7.04688C5.986 6.40625 5.125 7.26725 5.125 8.32813V30.75C5.125 31.7694 5.52997 32.7471 6.25081 33.4679C6.97165 34.1888 7.94932 34.5938 8.96875 34.5938H32.0313M10.25 12.8125H15.375V17.9375H10.25V12.8125Z" stroke="black" stroke-width="1.5" stroke-linecap="round" stroke-linejoin="round"/>
</g>
</svg>
