<svg width="40" height="40" viewBox="0 0 40 40" fill="none" xmlns="http://www.w3.org/2000/svg">
<g opacity="0.7">
<path d="M12.5 23.75V27.5M17.5 20V27.5M22.5 16.25V27.5M27.5 12.5V27.5M10 33.75H30C30.9946 33.75 31.9484 33.3549 32.6516 32.6516C33.3549 31.9484 33.75 30.9946 33.75 30V10C33.75 9.00544 33.3549 8.05161 32.6516 7.34835C31.9484 6.64509 30.9946 6.25 30 6.25H10C9.00544 6.25 8.05161 6.64509 7.34835 7.34835C6.64509 8.05161 6.25 9.00544 6.25 10V30C6.25 30.9946 6.64509 31.9484 7.34835 32.6516C8.05161 33.3549 9.00544 33.75 10 33.75Z" stroke="black" stroke-width="1.5" stroke-linecap="round" stroke-linejoin="round"/>
</g>
</svg>
